<svg xmlns="http://www.w3.org/2000/svg" fill="none" viewBox="0 0 52 41"><mask id="ai-mask" width="52" height="41" x="-.483" y="-.875" fill="#000" maskUnits="userSpaceOnUse"><path fill="#fff" d="M-.483-.875h52v41h-52z"/><path d="m21.455 10.172-8.32 26.953H4.297L16.838 3h5.601l-.984 7.172Zm6.89 26.953-8.343-26.953L18.924 3h5.671l12.61 34.125h-8.86Zm-.328-12.727v6.352H10.51v-6.352h17.508ZM48.455 3v34.125h-8.203V3h8.203Z"/></mask><path fill="#96D8F9" d="m21.455 10.172-8.32 26.953H4.297L16.838 3h5.601l-.984 7.172Zm6.89 26.953-8.343-26.953L18.924 3h5.671l12.61 34.125h-8.86Zm-.328-12.727v6.352H10.51v-6.352h17.508ZM48.455 3v34.125h-8.203V3h8.203Z"/><path fill="#ECF2F7" d="m21.455 10.172 2.866.885.072-.234.034-.243-2.972-.408Zm-8.32 26.953v3h2.213l.653-2.115-2.867-.885Zm-8.837 0L1.483 36.09 0 40.125h4.298v-3ZM16.838 3V0h-2.094l-.722 1.965L16.837 3Zm5.601 0 2.972.408L25.88 0h-3.44v3Zm5.906 34.125-2.865.887.654 2.113h2.211v-3Zm-8.343-26.953-2.967.446.034.224.067.217 2.866-.887ZM18.924 3V0h-3.485l.518 3.446L18.923 3Zm5.671 0 2.814-1.04L26.685 0h-2.09v3Zm12.61 34.125v3h4.306l-1.492-4.04-2.814 1.04Zm-9.188-12.727h3v-3h-3v3Zm0 6.352v3h3v-3h-3Zm-17.508 0h-3v3h3v-3Zm0-6.352v-3h-3v3h3Zm10.946-14.226-2.867-.885-8.32 26.953 2.866.885 2.867.885 8.32-26.953-2.866-.885Zm-8.32 26.953v-3H4.297v6h8.836v-3Zm-8.837 0 2.816 1.035 12.54-34.125L16.836 3l-2.815-1.035L1.482 36.09l2.816 1.035ZM16.838 3v3h5.601V0h-5.602v3Zm5.601 0-2.972-.408-.984 7.172 2.972.408 2.972.408.984-7.172L22.44 3Zm5.906 34.125 2.866-.887-8.344-26.953-2.865.887-2.866.887 8.344 26.953 2.865-.887Zm-8.343-26.953 2.966-.446-1.078-7.172L18.924 3l-2.967.446 1.078 7.172 2.967-.446ZM18.924 3v3h5.671V0h-5.671v3Zm5.671 0-2.814 1.04 12.61 34.125 2.814-1.04 2.814-1.04L27.409 1.96 24.595 3Zm12.61 34.125v-3h-8.86v6h8.86v-3Zm-9.188-12.727h-3v6.352h6v-6.352h-3Zm0 6.352v-3H10.51v6h17.508v-3Zm-17.508 0h3v-6.352h-6v6.352h3Zm0-6.352v3h17.508v-6H10.51v3ZM48.455 3h3V0h-3v3Zm0 34.125v3h3v-3h-3Zm-8.203 0h-3v3h3v-3Zm0-34.125V0h-3v3h3Zm8.203 0h-3v34.125h6V3h-3Zm0 34.125v-3h-8.203v6h8.203v-3Zm-8.203 0h3V3h-6v34.125h3Zm0-34.125v3h8.203V0h-8.203v3Z" mask="url(#ai-mask)"/></svg>