<svg xmlns="http://www.w3.org/2000/svg" width="113" height="113" fill="none"><path fill="#fff" d="M87.5 12h-63C17.044 12 11 18.044 11 25.5v63c0 7.456 6.044 13.5 13.5 13.5h63c7.456 0 13.5-6.044 13.5-13.5v-63c0-7.456-6.044-13.5-13.5-13.5Z"/><path fill="#4285F4" d="M38.773 80.73V55.77L24.36 44.695v30.762c0 3.516 1.758 5.274 5.274 5.274"/><path fill="#EA4335" d="M38.07 55.594 56 69.129l17.93-13.535V38.367L56 51.902 38.07 38.367"/><path fill="#34A853" d="M73.227 80.73V55.77L87.64 44.695v30.762c0 3.516-1.758 5.274-5.274 5.274"/><path fill="#C5221F" d="M24.36 45.047 38.772 56.12V38.894L33.5 34.852c-4.746-3.692-9.14 0-9.14 4.57"/><path fill="#FBBC04" d="M87.64 45.047 73.228 56.12V38.894l5.273-4.042c4.746-3.692 9.14 0 9.14 4.57"/></svg>