<svg xmlns="http://www.w3.org/2000/svg" width="113" height="113" fill="none"><path fill="url(#telegram-svg)" d="M56.5 105.938c27.304 0 49.438-22.134 49.438-49.438 0-27.304-22.134-49.438-49.438-49.438-27.304 0-49.438 22.134-49.438 49.438 0 27.304 22.134 49.438 49.438 49.438Z"/><path fill="#fff" d="M81.171 36.05c.44-2.844-2.264-5.09-4.793-3.98L26.007 54.187c-1.814.797-1.68 3.544.2 4.143l10.388 3.308a6.697 6.697 0 0 0 5.86-.891l23.42-16.18c.707-.489 1.477.516.873 1.138L49.89 63.084c-1.636 1.686-1.311 4.544.656 5.777l18.875 11.836c2.117 1.328 4.84-.006 5.236-2.564l6.514-42.083Z"/><defs><linearGradient id="telegram-svg" x1="56.5" x2="56.5" y1="7.063" y2="105.938" gradientUnits="userSpaceOnUse"><stop stop-color="#37BBFE"/><stop offset="1" stop-color="#007DBB"/></linearGradient></defs></svg>