<svg xmlns="http://www.w3.org/2000/svg" width="113" height="113" fill="none"><path fill="#BFC8D0" fill-rule="evenodd" d="M56.5 109.47A49.44 49.44 0 1 0 13.48 84.4l-6.42 25.06 25.83-6a49.22 49.22 0 0 0 23.61 6Zm0-7.6A41.83 41.83 0 1 0 22.22 84l-3.75 14.05 14.3-3.57a41.64 41.64 0 0 0 23.73 7.37Z" clip-rule="evenodd"/><path fill="url(#whatsapp)" d="M98.88 56.5a42.38 42.38 0 0 1-66.42 34.9l-14.48 3.62 3.8-14.23a42.37 42.37 0 1 1 77.1-24.29Z"/><path fill="#fff" fill-rule="evenodd" d="M56.5 105.47a48.97 48.97 0 1 0-42.6-24.82l-6.37 24.82 25.59-5.94a48.75 48.75 0 0 0 23.38 5.94Zm0-7.54a41.43 41.43 0 1 0-33.96-17.68l-3.7 13.92L33 90.63a41.24 41.24 0 0 0 23.5 7.3Z" clip-rule="evenodd"/><path fill="#fff" d="M44.14 33.55c-1.17-2.36-2.98-2.16-4.8-2.16-3.25 0-8.33 3.9-8.33 11.16 0 5.95 2.62 12.46 11.45 22.2 8.52 9.4 19.72 14.26 29.02 14.1 9.3-.17 11.21-8.17 11.21-10.87 0-1.2-.74-1.8-1.25-1.96-3.17-1.52-9.02-4.35-10.35-4.89-1.33-.53-2.02.2-2.45.58-1.2 1.15-3.6 4.54-4.42 5.3-.81.76-2.03.38-2.54.09-1.87-.75-6.94-3-10.97-6.92-5-4.84-5.29-6.5-6.23-7.99-.75-1.18-.2-1.91.07-2.23a63.05 63.05 0 0 0 3.23-4.1c.67-.96.14-2.4-.18-3.3-1.36-3.88-2.52-7.13-3.46-9.01Z"/><defs><linearGradient id="whatsapp" x1="93.58" x2="14.13" y1="24.72" y2="98.88" gradientUnits="userSpaceOnUse"><stop stop-color="#5BD066"/><stop offset="1" stop-color="#27B43E"/></linearGradient></defs></svg>